<svg xml:space="preserve" viewBox="0 0 100 100" y="0" x="0" xmlns="http://www.w3.org/2000/svg" id="cloud_1" version="1.1" style="height: 100%; width: 100%; background: rgb(255, 255, 255);" width="200px" height="200px"><g class="ldl-scale" style="transform-origin: 50% 50%; transform: rotate(0deg) scale(0.8, 0.8);"><g class="ldl-ani"><g class="ldl-layer"><g class="ldl-ani" style="transform-origin: 50px 50px; transform: matrix(1, 0, 0, 1, 0, 0); animation: 1.11111s linear -1.11111s infinite normal forwards running bounce-d804cbdf-abcb-4baa-97cc-52968a35178d;"><path fill="#abbd81" d="M89.428 61.009c0 3.115-2.282 5.923-5.934 7.925.016.228.045.454.045.685 0 7.088-7.508 12.835-16.77 12.835-4.608 0-8.78-1.424-11.811-3.727-1.911 3.198-5.248 5.324-9.055 5.324-3.799 0-7.13-2.116-9.043-5.302a19.733 19.733 0 0 1-6.831 1.205c-9.756 0-17.666-6.951-17.666-15.525 0-.396.034-.785.067-1.174A12.685 12.685 0 0 1 7.5 53.2c0-5.568 3.559-10.286 8.5-11.987.496-7.87 6.889-14.205 14.996-14.946.999-5.864 5.854-10.318 11.707-10.318 4.164 0 7.823 2.256 9.951 5.668a17.25 17.25 0 0 1 4.323-.547c4.073 0 7.738 1.4 10.339 3.633a22.266 22.266 0 0 1 4.895-.561c11.206 0 20.29 8.224 20.29 18.37 0 5.012-2.223 9.55-5.817 12.864 1.73 1.649 2.744 3.571 2.744 5.633z" style="fill: rgb(171, 189, 129);"></path></g></g>
</g></g>
</svg>
