<svg xml:space="preserve" viewBox="0 0 100 100" y="0px" x="0px" xmlns:xlink="http://www.w3.org/1999/xlink" xmlns="http://www.w3.org/2000/svg" id="star_1" version="1.1" style="height: 100%; width: 100%; background: rgb(255, 255, 255);" width="47px" height="47px"><g class="ldl-scale" style="transform-origin: 50% 50%; transform: rotate(0deg) scale(0.8, 0.8);"><g class="ldl-ani"><g class="ldl-layer"><g class="ldl-ani" style="transform-origin: 50px 50px;"><g><g class="ldl-layer"><g class="ldl-ani" style="transform-origin: 50px 50px; opacity: 1; animation: 0.775194s linear -0.465116s infinite normal forwards running damage-29233f41-03cf-419d-91f5-084bc6fc012c;"><path d="M32.4,90.9c-0.1-15.8-8.1-23.8-23.7-24.2c16,0.4,23.8-7.4,23.7-23.3c0,15.8,7.9,23.7,23.7,23.7C40.3,67.2,32.4,75.1,32.4,90.9z" stroke-miterlimit="10" stroke-linejoin="round" stroke-linecap="round" stroke-width="3.5" stroke="#333435" fill="#F5E169" style="fill: rgb(245, 225, 105); stroke: rgb(51, 52, 53);"></path></g></g><g class="ldl-layer"><g class="ldl-ani" style="transform-origin: 50px 50px; opacity: 1; animation: 0.775194s linear -0.542636s infinite normal forwards running damage-29233f41-03cf-419d-91f5-084bc6fc012c;"><path d="M66,62.3c0-7.6-3.9-11.5-11.4-11.7c7.7,0.2,11.4-3.6,11.4-11.2c0,7.6,3.8,11.4,11.4,11.4C69.8,50.9,66,54.7,66,62.3z" stroke-miterlimit="10" stroke-linejoin="round" stroke-linecap="round" stroke-width="3.5" stroke="#333435" fill="#F5E169" style="fill: rgb(245, 225, 105); stroke: rgb(51, 52, 53);"></path></g></g></g></g></g><g class="ldl-layer"><g class="ldl-ani" style="transform-origin: 50px 50px; opacity: 1; animation: 0.775194s linear -0.620155s infinite normal forwards running damage-29233f41-03cf-419d-91f5-084bc6fc012c;"><path d="M78.1,90.5c0-8.8-4.5-13.2-13.2-13.5c8.9,0.2,13.2-4.1,13.2-12.9c0,8.8,4.4,13.2,13.2,13.2C82.5,77.3,78.1,81.7,78.1,90.5z" stroke-miterlimit="10" stroke-linejoin="round" stroke-linecap="round" stroke-width="3.5" stroke="#333435" fill="#F5E169" style="fill: rgb(245, 225, 105); stroke: rgb(51, 52, 53);"></path></g></g><g class="ldl-layer"><g class="ldl-ani" style="transform-origin: 50px 50px;"><g><g class="ldl-layer"><g class="ldl-ani" style="transform-origin: 50px 50px; opacity: 1; animation: 0.775194s linear -0.697674s infinite normal forwards running damage-29233f41-03cf-419d-91f5-084bc6fc012c;"><path d="M42.8,49.3c0-12.9-6.6-19.4-19.3-19.7c13,0.3,19.4-6.1,19.3-18.9c0,12.9,6.4,19.3,19.3,19.3C49.2,30,42.8,36.4,42.8,49.3z" stroke-miterlimit="10" stroke-linejoin="round" stroke-linecap="round" stroke-width="3.5" stroke="#333435" fill="#F5E169" style="fill: rgb(245, 225, 105); stroke: rgb(51, 52, 53);"></path></g></g><g class="ldl-layer"><g class="ldl-ani" style="transform-origin: 50px 50px; opacity: 1; animation: 0.775194s linear -0.775194s infinite normal forwards running damage-29233f41-03cf-419d-91f5-084bc6fc012c;"><path d="M77.5,35.5c0-8.8-4.5-13.2-13.2-13.5c8.9,0.2,13.2-4.1,13.2-12.9c0,8.8,4.4,13.2,13.2,13.2C81.9,22.3,77.5,26.7,77.5,35.5z" stroke-miterlimit="10" stroke-linejoin="round" stroke-linecap="round" stroke-width="3.5" stroke="#333435" fill="#F5E169" style="fill: rgb(245, 225, 105); stroke: rgb(51, 52, 53);"></path></g></g></g></g></g></g></g></svg>
