<?xml version="1.0" encoding="UTF-8"?>
<svg width="88mm" height="88mm" version="1.1" viewBox="0 0 88 88" xmlns="http://www.w3.org/2000/svg" xmlns:xlink="http://www.w3.org/1999/xlink">
 <defs>
  <clipPath id="clipPath3798">
   <path d="m-168.57-1267.6h1297.1v534.29h-1297.1z" color="#000000" fill="#ececec"/>
  </clipPath>
  <clipPath id="clipPath3798-6">
   <path d="m-168.57-1267.6h1297.1v534.29h-1297.1z" color="#000000" fill="#ececec"/>
  </clipPath>
  <clipPath id="clipPath3798-6-9">
   <path d="m-168.57-1267.6h1297.1v534.29h-1297.1z" color="#000000" fill="#ececec"/>
  </clipPath>
  <linearGradient id="linearGradient144393" x1="43.403" x2="43.784" y1="68.859" y2="93.834" gradientTransform="matrix(.98101 0 0 .98101 -9.5053 -34.611)" gradientUnits="userSpaceOnUse">
   <stop stop-color="#c6a077" offset="0"/>
   <stop stop-color="#c6a077" stop-opacity="0" offset="1"/>
  </linearGradient>
  <clipPath id="clipPath3798-62">
   <path d="m-168.57-1267.6h1297.1v534.29h-1297.1z" color="#000000" fill="#ececec"/>
  </clipPath>
  <filter id="filter144969" x="-.01875" y="-.01875" width="1.0375" height="1.0375" color-interpolation-filters="sRGB">
   <feGaussianBlur stdDeviation="0.56159814"/>
  </filter>
  <linearGradient id="linearGradient3078" x1="-168.57" x2="431.43" y1="-883.35" y2="-883.35" gradientUnits="userSpaceOnUse">
   <stop stop-color="#adadad" offset="0"/>
   <stop stop-color="#fff" offset=".19728"/>
   <stop stop-color="#dedede" offset=".49388"/>
   <stop stop-color="#f7f7f7" offset=".65442"/>
   <stop stop-color="#fbfbfb" offset=".68707"/>
   <stop stop-color="#fdfdfd" offset=".7102"/>
   <stop stop-color="#f8f8f8" offset=".73197"/>
   <stop stop-color="#ebebeb" offset=".75918"/>
   <stop stop-color="#adadad" offset="1"/>
  </linearGradient>
  <linearGradient id="linearGradient3080" x1="-168.57" x2="1128.6" y1="-1000.5" y2="-1000.5" gradientUnits="userSpaceOnUse">
   <stop stop-color="#696969" offset="0"/>
   <stop stop-color="#b4b4b4" offset=".19728"/>
   <stop stop-color="#a0a0a0" offset=".49388"/>
   <stop stop-color="#bcbcbc" offset=".65442"/>
   <stop stop-color="#e8e8e8" offset=".68707"/>
   <stop stop-color="#cbcbcb" offset=".7102"/>
   <stop stop-color="#b2b2b2" offset=".73197"/>
   <stop stop-color="#afafaf" offset=".75918"/>
   <stop stop-color="#666" offset="1"/>
  </linearGradient>
 </defs>
 <g transform="translate(11.3 -1.7441e-5)">
  <g filter="url(#filter144969)" opacity=".86429">
   <rect x="-2.3718" y="9.116" width="71.117" height="71.117" fill="#c6a077" fill-opacity=".94218" stroke="#a8754a" stroke-linejoin="bevel" stroke-opacity=".95294" stroke-width=".51214"/>
   <g transform="matrix(0 .119 -.23796 0 -177.16 29.176)" style="mix-blend-mode:multiply">
    <path d="m-168.57-1033.4h600v300h-600z" color="#000000" fill="url(#linearGradient3078)" stroke-width="2.8301"/>
    <path transform="matrix(.46256 0 0 .5615 -90.598 -321.58)" d="m1128.6-1267.6h-1297.1m1297.1 534.29h-1297.1" clip-path="url(#clipPath3798-62)" color="#000000" fill="url(#linearGradient3080)" stroke-width="5.5532"/>
    <path d="m-170.61-735.39 2.0387 2.0387-2.0387 2.0387-2.0387-2.0387z" color="#000000" stroke-width="2.8301"/>
   </g>
  </g>
  <g id="rotateHandle">
   <rect id="turret_square" x="12.985" y="24.142" width="39.573" height="39.573" fill="#c6a077" fill-opacity=".94218" stroke="#a8754a" stroke-linejoin="bevel" stroke-opacity=".95294" stroke-width=".28498"/>
   <g transform="matrix(.066217 0 0 .13241 24.132 160.98)" style="mix-blend-mode:multiply">
    <path d="m-168.57-1033.4h600v300h-600z" color="#000000" fill="url(#linearGradient3078)" stroke-width="2.8301"/>
    <path transform="matrix(.46256 0 0 .5615 -90.598 -321.58)" d="m1128.6-1267.6h-1297.1m1297.1 534.29h-1297.1" clip-path="url(#clipPath3798)" color="#000000" fill="url(#linearGradient3080)" stroke-width="5.5532"/>
    <path d="m-170.61-735.39 2.0387 2.0387-2.0387 2.0387-2.0387-2.0387z" color="#000000" stroke-width="2.8301"/>
   </g>
   <g transform="matrix(.98723 0 0 .99868 -27.571 -35.318)">
    <rect x="51.987" y="35.425" width="5.4687" height="39.714" fill="#c6a077" fill-opacity=".94218" stroke="#a8754a" stroke-linejoin="bevel" stroke-opacity=".95294" stroke-width=".10613"/>
    <g transform="matrix(.0091182 0 0 .13241 53.522 172.25)" style="mix-blend-mode:multiply">
     <path d="m-168.57-1033.4h600v300h-600z" color="#000000" fill="url(#linearGradient3078)" stroke-width="2.8301"/>
     <path transform="matrix(.46256 0 0 .5615 -90.598 -321.58)" d="m1128.6-1267.6h-1297.1m1297.1 534.29h-1297.1" clip-path="url(#clipPath3798-6)" color="#000000" fill="url(#linearGradient3080)" stroke-width="5.5532"/>
     <path d="m-170.61-735.39 2.0387 2.0387-2.0387 2.0387-2.0387-2.0387z" color="#000000" stroke-width="2.8301"/>
    </g>
    <rect x="64.645" y="35.417" width="5.4687" height="39.714" fill="#c6a077" fill-opacity=".94218" stroke="#a8754a" stroke-linejoin="bevel" stroke-opacity=".95294" stroke-width=".10613"/>
    <g transform="matrix(.0091182 0 0 .13241 66.18 172.25)" style="mix-blend-mode:multiply">
     <path d="m-168.57-1033.4h600v300h-600z" color="#000000" fill="url(#linearGradient3078)" stroke-width="2.8301"/>
     <path transform="matrix(.46256 0 0 .5615 -90.598 -321.58)" d="m1128.6-1267.6h-1297.1m1297.1 534.29h-1297.1" clip-path="url(#clipPath3798-6-9)" color="#000000" fill="url(#linearGradient3080)" stroke-width="5.5532"/>
     <path d="m-170.61-735.39 2.0387 2.0387-2.0387 2.0387-2.0387-2.0387z" color="#000000" stroke-width="2.8301"/>
    </g>
   </g>
   <rect x="-11.427" y="-.10146" width="88.106" height="88.106" fill="none" stroke-linejoin="bevel"/>
   <circle cx="32.7" cy="44" r="13.841" fill="url(#linearGradient144393)" stroke="#a8754a" stroke-linejoin="bevel" stroke-opacity=".95294" stroke-width=".31797"/>
  </g>
 </g>
 <circle id="hpRing" cx="44.518" cy="44.663" r="30" fill="none" opacity=".475" stroke="green" stroke-linejoin="bevel" stroke-opacity=".95294" stroke-width="1.4194" stroke-dasharray="188.49" stroke-dashoffset="0"/>
</svg>
