<?xml version="1.0" encoding="UTF-8"?>
<svg width="54.194mm" height="53.581mm" version="1.1" viewBox="0 0 54.194 53.581" xmlns="http://www.w3.org/2000/svg">
 <g id="rotateHandle">
  <g transform="translate(-56.191 -178.74)">
   <ellipse cx="83.762" cy="205.53" rx="13.791" ry="26.62" fill="#2a00ef" fill-opacity=".94218" opacity=".86429" stroke="#f55" stroke-linejoin="bevel" stroke-opacity=".95294" stroke-width=".341"/>
   <g stroke="#000">
    <g fill="none" stroke-width=".26458px">
     <path d="m72.162 191.01c-10.023-9.9424-14.352 1.4433-14.352 1.4433"/>
     <path d="m70.667 206.37c-10.023-9.9424-14.352 1.4433-14.352 1.4433"/>
     <path d="m73.18 222.16c-10.023-9.9424-14.352 1.4433-14.352 1.4433"/>
    </g>
    <g fill-opacity=".94218" stroke-linejoin="bevel" stroke-opacity=".95294" stroke-width=".341">
     <ellipse cx="80.221" cy="190.82" rx="2.0446" ry="2.9266" fill="#fff" opacity=".86429"/>
     <ellipse cx="80.869" cy="190.12" rx="1.1827" ry="1.2628" fill="#2b0000" opacity=".86429"/>
     <ellipse cx="86.742" cy="190.74" rx="2.0446" ry="2.9266" fill="#fff" opacity=".86429"/>
     <ellipse cx="87.39" cy="190.04" rx="1.1827" ry="1.2628" fill="#2b0000" opacity=".86429"/>
    </g>
    <g fill="none" stroke-width=".25814px">
     <path d="m95.178 191.01c9.5406-9.9424 13.662 1.4433 13.662 1.4433"/>
     <path d="m96.601 206.37c9.5406-9.9424 13.662 1.4433 13.662 1.4433"/>
     <path d="m94.21 222.16c9.5406-9.9424 13.662 1.4433 13.662 1.4433"/>
    </g>
   </g>
  </g>
 </g>
</svg>
